<?xml version="1.0" standalone="no"?>
<!DOCTYPE svg PUBLIC "-//W3C//DTD SVG 20010904//EN"
 "http://www.w3.org/TR/2001/REC-SVG-20010904/DTD/svg10.dtd">
<svg version="1.0" xmlns="http://www.w3.org/2000/svg"
 width="512.000000pt" height="512.000000pt" viewBox="0 0 512.000000 512.000000"
 preserveAspectRatio="xMidYMid meet">
<metadata>
Created by potrace 1.14, written by Peter Selinger 2001-2017
</metadata>
<g transform="translate(0.000000,512.000000) scale(0.100000,-0.100000)"
fill="#000000" stroke="none">
<path d="M2270 4849 c-407 -52 -807 -221 -1135 -477 -98 -77 -330 -312 -401
-407 -188 -249 -334 -549 -403 -826 -62 -250 -87 -563 -62 -799 46 -436 206
-836 480 -1195 266 -348 656 -624 1083 -764 579 -190 1191 -148 1733 119 552
271 978 756 1169 1330 88 265 118 449 119 730 1 373 -72 687 -234 1019 -328
667 -947 1127 -1689 1256 -52 9 -128 17 -168 18 l-73 2 -505 -1005 c-929
-1847 -1115 -2222 -1109 -2228 4 -4 675 -8 1492 -11 l1485 -3 -437 868 c-567
1126 -658 1304 -668 1304 -7 0 -837 -1660 -837 -1675 0 -3 71 -4 157 -3 l156
3 50 100 c27 55 142 289 255 520 112 231 210 425 216 432 8 9 92 -148 334
-628 l323 -639 -1046 0 c-576 0 -1045 3 -1043 8 13 27 359 712 438 867 53 105
279 550 500 990 222 440 405 802 407 804 9 11 212 -34 333 -75 1073 -357 1643
-1514 1274 -2585 -135 -393 -396 -738 -745 -985 -729 -516 -1705 -492 -2414
61 -164 128 -372 367 -486 560 -303 514 -365 1150 -166 1706 148 413 438 780
805 1020 180 118 441 229 642 272 l105 23 72 140 c69 133 82 166 66 163 -5 -1
-37 -5 -73 -10z"/>
</g>
</svg>
